<?xml version="1.0" encoding="utf-8"?>
<!-- Generator: Adobe Illustrator 16.0.3, SVG Export Plug-In . SVG Version: 6.00 Build 0)  -->
<!DOCTYPE svg PUBLIC "-//W3C//DTD SVG 1.1//EN" "http://www.w3.org/Graphics/SVG/1.1/DTD/svg11.dtd">
<svg version="1.1" xmlns="http://www.w3.org/2000/svg" xmlns:xlink="http://www.w3.org/1999/xlink" x="0px" y="0px" width="41px"
	 height="41px" viewBox="0 0 41 41" enable-background="new 0 0 41 41" xml:space="preserve">
<g id="Ellipse_10_copy_2_1_" enable-background="new    ">
	<g id="Ellipse_10_copy_2">
		<g>
			<circle fill-rule="evenodd" clip-rule="evenodd" fill="#006EB6" cx="20.5" cy="20.5" r="20.5"/>
		</g>
	</g>
</g>
<g id="Shape_5_1_" enable-background="new    ">
	<g id="Shape_5">
		<g>
			<path fill-rule="evenodd" clip-rule="evenodd" fill="#FFFFFF" d="M19.128,14.38v1.526c0,0.505,0.025,0.885,0.078,1.137
				c0.052,0.252,0.139,0.469,0.262,0.646c0.122,0.177,0.293,0.311,0.515,0.399c0.221,0.089,0.489,0.132,0.808,0.132
				c0.285,0,0.537-0.051,0.758-0.155c0.219-0.103,0.398-0.264,0.537-0.479c0.143-0.218,0.233-0.45,0.275-0.701
				c0.043-0.249,0.065-0.643,0.065-1.177V14.25c0-0.422-0.022-0.735-0.069-0.943c-0.047-0.205-0.133-0.405-0.26-0.601
				c-0.124-0.194-0.303-0.351-0.535-0.473c-0.231-0.12-0.508-0.182-0.832-0.182c-0.384,0-0.7,0.094-0.947,0.283
				c-0.248,0.188-0.418,0.438-0.514,0.748C19.176,13.395,19.128,13.827,19.128,14.38L19.128,14.38z M20.223,13.602
				c0-0.326,0.25-0.593,0.555-0.593c0.305,0,0.554,0.267,0.554,0.593v3.068c0,0.326-0.249,0.593-0.554,0.593
				c-0.305,0-0.555-0.267-0.555-0.593V13.602z M23.361,17.636c0.064,0.152,0.165,0.276,0.301,0.369
				c0.135,0.092,0.307,0.139,0.514,0.139c0.18,0,0.34-0.048,0.479-0.145c0.14-0.098,0.257-0.243,0.353-0.437l-0.024,0.477h1.397
				v-5.765h-1.1v4.486c0,0.243-0.207,0.442-0.459,0.442c-0.25,0-0.457-0.199-0.457-0.442v-4.486h-1.148v3.888
				c0,0.496,0.01,0.826,0.025,0.993C23.258,17.321,23.297,17.481,23.361,17.636z M22.779,23.921c-0.301,0-0.547,0.196-0.547,0.436
				v3.254c0,0.241,0.246,0.437,0.547,0.437c0.303,0,0.549-0.195,0.549-0.437v-3.254C23.328,24.117,23.082,23.921,22.779,23.921z
				 M27.062,19.4H14.937c-1.622,0-2.949,1.215-2.949,2.7v6.189c0,1.485,1.327,2.699,2.949,2.699h12.125
				c1.621,0,2.948-1.214,2.948-2.699v-6.189C30.01,20.615,28.683,19.4,27.062,19.4z M14.491,28.962v-6.538l-1.25-0.004v-0.949
				l4.007,0.006v0.966l-1.503-0.001l0.001,6.521H14.491z M20.251,28.96l-1.006-0.001l0.002-0.719
				c-0.271,0.563-1.351,1.017-1.915,0.622c-0.302-0.21-0.292-0.579-0.322-0.896c-0.017-0.18-0.003-0.574-0.004-1.103l-0.004-3.451
				h1.246l0.005,3.506c0,0.479-0.026,0.757,0.004,0.85c0.179,0.527,0.637,0.241,0.739-0.029c0.033-0.089,0.002-0.34,0.002-0.844
				v-3.482h1.253V28.96z M22.119,28.437l-0.094,0.463l-1.03,0.014l0.006-7.436l1.252-0.002l-0.006,2.154
				c1.156-0.894,2.008-0.231,2.008,0.873L24.26,27.4C24.262,28.806,23.434,29.607,22.119,28.437z M25.015,27.021v-1.728
				c0-0.519,0.053-0.927,0.159-1.226s0.288-0.521,0.526-0.687c0.759-0.531,2.261-0.367,2.415,0.672
				c0.049,0.328,0.064,0.902,0.064,1.477v0.785h-2.152v1.339c0,0.271,0.232,0.493,0.514,0.493h0.185
				c0.282,0,0.514-0.222,0.514-0.493v-0.509c0.001-0.046,0.002-0.088,0.002-0.123l0.94-0.005
				C28.609,29.486,25.015,29.894,25.015,27.021z M27.245,24.686c0-0.298-0.252-0.541-0.56-0.541h-0.076
				c-0.308,0-0.559,0.243-0.559,0.541l-0.006,0.669h1.187L27.245,24.686z M16.357,18.219h1.317l0.001-4.42l1.557-3.788h-1.441
				l-0.828,2.813l-0.84-2.82h-1.426l1.657,3.797L16.357,18.219z"/>
		</g>
	</g>
</g>
</svg>
