<?xml version="1.0" encoding="utf-8"?>
<!-- Generator: Adobe Illustrator 16.0.3, SVG Export Plug-In . SVG Version: 6.00 Build 0)  -->
<!DOCTYPE svg PUBLIC "-//W3C//DTD SVG 1.1//EN" "http://www.w3.org/Graphics/SVG/1.1/DTD/svg11.dtd">
<svg version="1.1" xmlns="http://www.w3.org/2000/svg" xmlns:xlink="http://www.w3.org/1999/xlink" x="0px" y="0px" width="41px"
	 height="41px" viewBox="0 0 41 41" enable-background="new 0 0 41 41" xml:space="preserve">
<g id="Ellipse_10_1_" enable-background="new    ">
	<g id="Ellipse_10">
		<g>
			<circle fill-rule="evenodd" clip-rule="evenodd" fill="#006EB6" cx="20.5" cy="20.5" r="20.5"/>
		</g>
	</g>
</g>
<g id="Shape_12_1_" enable-background="new    ">
	<g id="Shape_12">
		<g>
			<path fill-rule="evenodd" clip-rule="evenodd" fill="#FFFFFF" d="M34.55,13.758c-0.96,0.434-1.992,0.727-3.075,0.858
				c1.105-0.675,1.955-1.743,2.354-3.017c-1.034,0.625-2.181,1.079-3.4,1.323c-0.978-1.06-2.368-1.722-3.909-1.722
				c-2.957,0-5.354,2.441-5.354,5.452c0,0.428,0.047,0.844,0.139,1.243c-4.451-0.228-8.396-2.398-11.038-5.697
				c-0.461,0.805-0.725,1.742-0.725,2.741c0,1.892,0.945,3.561,2.382,4.538c-0.878-0.028-1.704-0.273-2.425-0.682
				c0,0.022,0,0.046,0,0.068c0,2.642,1.846,4.846,4.295,5.347c-0.449,0.125-0.922,0.191-1.411,0.191
				c-0.345,0-0.68-0.034-1.007-0.098c0.682,2.166,2.659,3.743,5.002,3.786c-1.833,1.463-4.141,2.335-6.65,2.335
				c-0.432,0-0.858-0.026-1.277-0.076c2.37,1.547,5.184,2.449,8.208,2.449c9.85,0,15.235-8.309,15.235-15.514
				c0-0.236-0.005-0.472-0.016-0.706C32.924,15.812,33.832,14.852,34.55,13.758z"/>
		</g>
	</g>
</g>
</svg>
