<?xml version="1.0" encoding="utf-8"?>
<!-- Generator: Adobe Illustrator 16.0.3, SVG Export Plug-In . SVG Version: 6.00 Build 0)  -->
<!DOCTYPE svg PUBLIC "-//W3C//DTD SVG 1.1//EN" "http://www.w3.org/Graphics/SVG/1.1/DTD/svg11.dtd">
<svg version="1.1" xmlns="http://www.w3.org/2000/svg" xmlns:xlink="http://www.w3.org/1999/xlink" x="0px" y="0px" width="41px"
	 height="41px" viewBox="0 0 41 41" enable-background="new 0 0 41 41" xml:space="preserve">
<g id="Ellipse_10_copy_3_1_" enable-background="new    ">
	<g id="Ellipse_10_copy_3">
		<g>
			<circle fill-rule="evenodd" clip-rule="evenodd" fill="#006EB6" cx="20.5" cy="20.5" r="20.5"/>
		</g>
	</g>
</g>
<g id="Shape_13_1_" enable-background="new    ">
	<g id="Shape_13">
		<g>
			<path fill-rule="evenodd" clip-rule="evenodd" fill="#FFFFFF" d="M12.492,7.8C11,7.8,9.798,9.008,9.798,10.495
				c0,1.488,1.202,2.697,2.694,2.697c1.485,0,2.691-1.209,2.691-2.697C15.183,9.008,13.978,7.8,12.492,7.8z M10.167,30.201h4.647
				V15.238h-4.647V30.201z M26.637,14.865c-2.26,0-3.775,1.24-4.395,2.417h-0.063v-2.044h-4.451v14.963h4.637v-7.402
				c0-1.951,0.369-3.841,2.785-3.841c2.38,0,2.414,2.231,2.414,3.968v7.275h4.639v-8.207C32.203,17.964,31.334,14.865,26.637,14.865
				z"/>
		</g>
	</g>
</g>
</svg>
